<svg xmlns="http://www.w3.org/2000/svg" fill="none" viewBox="0 0 44 66"><path fill="#3F3E3E" d="M22 26h1c3 0 6 3 6 7h-7z"/><path fill="url(#a)" d="M0 59h7v7H6c-4 0-6-3-6-7"/><path fill="url(#b)" d="M14 26h8v7h-8z"/><path fill="url(#c)" d="M14 33h8v6h-8z"/><path fill="#3F3E3E" d="M22 33h7v6h-7zM7 59h7v7H7zm0-7h7v7H7z"/><path fill="url(#d)" d="M0 52h7v7H0z"/><path fill="#3F3E3E" d="M7 46h7v6H7z"/><path fill="url(#e)" d="M0 46h7v6H0z"/><path fill="#3F3E3E" d="M7 39h7v7H7z"/><path fill="url(#f)" d="M0 39h7v7H0z"/><path fill="#3F3E3E" d="M7 33h7v6H7z"/><path fill="url(#g)" d="M0 33h7v6H0z"/><path fill="#3F3E3E" d="M7 26h7v7H7z"/><path fill="url(#h)" d="M0 26h7v7H0z"/><path fill="#3F3E3E" d="M7 20h7v6H7z"/><path fill="url(#i)" d="M0 20h7v6H0z"/><path fill="#3F3E3E" d="M7 13h7v7H7z"/><path fill="url(#j)" d="M0 13h7v7H0z"/><path fill="#3F3E3E" d="M7 7h7v6H7z"/><path fill="url(#k)" d="M0 7h7v6H0z"/><path fill="#3F3E3E" d="M7 0h2c3 0 5 3 5 7H7z"/><path fill="url(#l)" d="M14 7c0-4 3-7 6-7h2v7z"/><path fill="#3F3E3E" d="M22 0h7v7h-7zm0 7h7v6h-7z"/><path fill="#F88105" d="M14 7h8v6h-8z"/><path fill="url(#m)" d="M29 0h7v7h-7z"/><path fill="#3F3E3E" d="M36 0h7v7h-7zm0 7h7c0 3-2 6-5 6h-2z"/><path fill="url(#n)" d="M0 7c0-4 2-7 6-7h1v7z"/><path fill="url(#o)" d="M29 7h7v6h-7z"/><defs><linearGradient id="a" x1="80" x2="80" y1="0" y2="80" gradientUnits="userSpaceOnUse"><stop stop-color="#F88105"/><stop offset=".745" stop-color="#B0160C"/></linearGradient><linearGradient id="b" x1="80" x2="80" y1="0" y2="80" gradientUnits="userSpaceOnUse"><stop stop-color="#F88105"/><stop offset=".745" stop-color="#B0160C"/></linearGradient><linearGradient id="c" x1="80" x2="80" y1="0" y2="80" gradientUnits="userSpaceOnUse"><stop stop-color="#F88105"/><stop offset=".745" stop-color="#B0160C"/></linearGradient><linearGradient id="d" x1="80" x2="80" y1="0" y2="80" gradientUnits="userSpaceOnUse"><stop stop-color="#F88105"/><stop offset=".745" stop-color="#B0160C"/></linearGradient><linearGradient id="e" x1="80" x2="80" y1="0" y2="80" gradientUnits="userSpaceOnUse"><stop stop-color="#F88105"/><stop offset=".745" stop-color="#B0160C"/></linearGradient><linearGradient id="f" x1="80" x2="80" y1="0" y2="80" gradientUnits="userSpaceOnUse"><stop stop-color="#F88105"/><stop offset=".745" stop-color="#B0160C"/></linearGradient><linearGradient id="g" x1="80" x2="80" y1="0" y2="80" gradientUnits="userSpaceOnUse"><stop stop-color="#F88105"/><stop offset=".745" stop-color="#B0160C"/></linearGradient><linearGradient id="h" x1="80" x2="80" y1="0" y2="80" gradientUnits="userSpaceOnUse"><stop stop-color="#F88105"/><stop offset=".745" stop-color="#B0160C"/></linearGradient><linearGradient id="i" x1="80" x2="80" y1="0" y2="80" gradientUnits="userSpaceOnUse"><stop stop-color="#F88105"/><stop offset=".745" stop-color="#B0160C"/></linearGradient><linearGradient id="j" x1="80" x2="80" y1="0" y2="80" gradientUnits="userSpaceOnUse"><stop stop-color="#F88105"/><stop offset=".745" stop-color="#B0160C"/></linearGradient><linearGradient id="k" x1="80" x2="80" y1="0" y2="80" gradientUnits="userSpaceOnUse"><stop stop-color="#F88105"/><stop offset=".745" stop-color="#B0160C"/></linearGradient><linearGradient id="l" x1="80" x2="80" y1="0" y2="80" gradientUnits="userSpaceOnUse"><stop stop-color="#F88105"/><stop offset=".745" stop-color="#B0160C"/></linearGradient><linearGradient id="m" x1="80" x2="80" y1="0" y2="80" gradientUnits="userSpaceOnUse"><stop stop-color="#F88105"/><stop offset=".745" stop-color="#B0160C"/></linearGradient><linearGradient id="n" x1="80" x2="80" y1="0" y2="80" gradientUnits="userSpaceOnUse"><stop stop-color="#F88105"/><stop offset=".745" stop-color="#B0160C"/></linearGradient><linearGradient id="o" x1="80" x2="80" y1="0" y2="80" gradientUnits="userSpaceOnUse"><stop stop-color="#F88105"/><stop offset=".745" stop-color="#B0160C"/></linearGradient></defs></svg>