<svg xmlns="http://www.w3.org/2000/svg" fill="none" viewBox="0 0 160 80"><path fill="#3F3E3E" d="M22 26h1c3 0 6 3 6 7h-7z"/><path fill="url(#a)" d="M0 59h7v7H6c-4 0-6-3-6-7"/><path fill="url(#b)" d="M14 26h8v7h-8z"/><path fill="url(#c)" d="M14 33h8v6h-8z"/><path fill="#3F3E3E" d="M22 33h7v6h-7zM7 59h7v7H7zm0-7h7v7H7z"/><path fill="url(#d)" d="M0 52h7v7H0z"/><path fill="#3F3E3E" d="M7 46h7v6H7z"/><path fill="url(#e)" d="M0 46h7v6H0z"/><path fill="#3F3E3E" d="M7 39h7v7H7z"/><path fill="url(#f)" d="M0 39h7v7H0z"/><path fill="#3F3E3E" d="M7 33h7v6H7z"/><path fill="url(#g)" d="M0 33h7v6H0z"/><path fill="#3F3E3E" d="M7 26h7v7H7z"/><path fill="url(#h)" d="M0 26h7v7H0z"/><path fill="#3F3E3E" d="M7 20h7v6H7z"/><path fill="url(#i)" d="M0 20h7v6H0z"/><path fill="#3F3E3E" d="M7 13h7v7H7z"/><path fill="url(#j)" d="M0 13h7v7H0z"/><path fill="#3F3E3E" d="M7 7h7v6H7z"/><path fill="url(#k)" d="M0 7h7v6H0z"/><path fill="#3F3E3E" d="M7 0h2c3 0 5 3 5 7H7z"/><path fill="url(#l)" d="M14 7c0-4 3-7 6-7h2v7z"/><path fill="#3F3E3E" d="M22 0h7v7h-7zm0 7h7v6h-7z"/><path fill="#F88105" d="M14 7h8v6h-8z"/><path fill="url(#m)" d="M29 0h7v7h-7z"/><path fill="#3F3E3E" d="M36 0h7v7h-7zm0 7h7c0 3-2 6-5 6h-2z"/><path fill="url(#n)" d="M0 7c0-4 2-7 6-7h1v7z"/><path fill="url(#o)" d="M29 7h7v6h-7z"/><path fill="#F88105" d="M65 14h7v7h-7z"/><path fill="#3F3E3E" d="M65 21h7c0 4-3 7-6 7h-1z"/><path fill="url(#p)" d="M57 21h8v7h-2c-3 0-6-3-6-7"/><path fill="url(#q)" d="M57 14h8v7h-8z"/><path fill="#3F3E3E" d="M50 14h7v7h-7z"/><path fill="url(#r)" d="M43 14h7v7h-7z"/><path fill="#3F3E3E" d="M36 14h7v7h-7z"/><path fill="url(#s)" d="M29 21c0-4 2-7 5-7h2v7z"/><path fill="url(#t)" d="M29 21h7v7h-7z"/><path fill="#3F3E3E" d="M36 21h7v7h-7z"/><path fill="url(#u)" d="M43 21h7v7h-7z"/><path fill="url(#v)" d="M43 28h7v6h-7z"/><path fill="url(#w)" d="M43 34h7v7h-7z"/><path fill="#3F3E3E" d="M50 34h7v7h-7zm0 7h7v6h-7zm0 6h7v7h-7zm0 7h7v6h-7zm0 6h7v7h-7zm0 7h7v6h-7z"/><path fill="url(#x)" d="M43 41h7v6h-7z"/><path fill="url(#y)" d="M43 47h7v7h-7z"/><path fill="url(#z)" d="M43 54h7v6h-7z"/><path fill="url(#A)" d="M43 60h7v7h-7z"/><path fill="url(#B)" d="M43 67h7v6h-7z"/><path fill="url(#C)" d="M43 73h7v7h-7z"/><path fill="#3F3E3E" d="M50 73h7c0 4-2 7-5 7h-2zm0-45h2c3 0 5 2 5 6h-7zm0-7h7c0 4-2 7-5 7h-2z"/><path fill="url(#D)" d="m97 6 5-6 4 5-6 6z"/><path fill="url(#E)" d="m92 12 5-6 4 5-5 6z"/><path fill="url(#F)" d="m97 15 5-6 4 5-5 6z"/><path fill="url(#G)" d="m92 15-5-6-4 5 5 6z"/><path fill="url(#H)" d="m87 19 7-10 8 10-8 9z"/><path fill="url(#I)" d="m92 6-5-6-4 5 5 6z"/><path fill="url(#J)" d="m97 12-5-6-4 5 5 6z"/><path fill="url(#K)" d="M73 0h7v7h-7z"/><path fill="url(#L)" d="M73 7h7v6h-2c-3 0-5-3-5-6"/><path fill="#3F3E3E" d="M80 0h7v7h-7zm22 0h7v7h-7z"/><path fill="url(#M)" d="m97 21-5-6-4 4 5 6z"/><path fill="url(#N)" d="m92 21 5-6 4 4-5 6z"/><path fill="#3F3E3E" d="M102 7h7v6h-7z"/><path fill="url(#O)" d="M109 7h7v6h-7z"/><path fill="url(#P)" d="M109 13h7v7h-7z"/><path fill="url(#Q)" d="M109 20h7v6h-7z"/><path fill="url(#R)" d="M109 26h7v7h-7z"/><path fill="url(#S)" d="M109 33h7v6h-7z"/><path fill="url(#T)" d="M109 39h7v7h-7z"/><path fill="url(#U)" d="M109 46h7v7h-7z"/><path fill="#3F3E3E" d="M102 13h7v7h-7z"/><path fill="#F88105" d="M102 20h7v6h-2c-3 0-5-3-5-6"/><path fill="#3F3E3E" d="M102 33c0-4 2-7 5-7h2v7zm0 0h7v6h-7zm0 6h7v7h-7zm0 7h7v7h-7zm0 13c0-4 2-6 5-6h2v6zm0 0h7v7h-2c-3 0-5-3-5-7"/><path fill="url(#V)" d="M109 59h7c0 4-3 7-6 7h-1z"/><path fill="url(#W)" d="M109 53h7v6h-7z"/><path fill="url(#X)" d="M109 0h1c3 0 6 3 6 7h-7z"/><path fill="#3F3E3E" d="M80 7h7v6h-7zm0 6h7v7h-7z"/><path fill="url(#Y)" d="M73 13h7v7h-7z"/><path fill="url(#Z)" d="M73 20h7v6h-7z"/><path fill="url(#aa)" d="M73 26h7v7h-7z"/><path fill="url(#ab)" d="M73 33h7v6h-7z"/><path fill="url(#ac)" d="M73 39h7v7h-7z"/><path fill="url(#ad)" d="M73 46h7v7h-7z"/><path fill="url(#ae)" d="M73 53h7v6h-7z"/><path fill="#3F3E3E" d="M80 46h7v7h-7zm0 13h7v7h-7zm0-6h7v6h-7z"/><path fill="url(#af)" d="M73 59h7v7h-2c-3 0-5-3-5-7"/><path fill="#3F3E3E" d="M80 39h2c3 0 5 3 5 7h-7zm0-19h7v6h-7zm0 6h7v7h-7zm0 7h7c0 3-2 6-5 6h-2z"/><path fill="url(#ag)" d="M153 14h7v7h-7z"/><path fill="#3F3E3E" d="M131 14h7v7h-7z"/><path fill="url(#ah)" d="M124 14h7v7h-7z"/><path fill="#F88105" d="M146 21h7v7h-7z"/><path fill="url(#ai)" d="M138 21h8v7h-8z"/><path fill="#3F3E3E" d="M131 21h7v7h-7z"/><path fill="url(#aj)" d="M124 21h7v7h-7z"/><path fill="url(#ak)" d="M124 28h7v6h-7z"/><path fill="url(#al)" d="M124 34h7c0 4-2 7-5 7h-2z"/><path fill="#3F3E3E" d="M117 21h7v7h-7zm0 7h7v6h-7zm0 6h7v7h-7zm0 7h7v6h-7zm7 0h7v6h-7zm7 0h7v6h-7zm7 0h8v6h-8zm8 0h7v6h-7zm7 0h7v6h-7z"/><path fill="url(#am)" d="M124 41h7v6h-7z"/><path fill="#3F3E3E" d="M131 41h7v6h-7z"/><path fill="url(#an)" d="M138 41h8v6h-8z"/><path fill="#3F3E3E" d="M146 41h7v6h-7z"/><path fill="url(#ao)" d="M153 41h7v6h-7z"/><path fill="url(#ap)" d="M124 47h7v7h-7z"/><path fill="#3F3E3E" d="M131 47h7v7h-7z"/><path fill="url(#aq)" d="M138 47h8v7h-8z"/><path fill="#3F3E3E" d="M146 47h7v7h-7z"/><path fill="url(#ar)" d="M153 47h7v7h-7z"/><path fill="url(#as)" d="M153 54h7v6h-7z"/><path fill="url(#at)" d="M153 60h7v7h-7z"/><path fill="#3F3E3E" d="M146 60c0-3 2-6 5-6h2v6zm0 0h7v7h-2c-3 0-5-3-5-7m-29-13h7v7h-2c-3 0-5-3-5-7m0 26c0-3 2-6 5-6h2v6z"/><path fill="url(#au)" d="M124 67h2c3 0 5 3 5 6h-7z"/><path fill="#3F3E3E" d="M131 73c0-3 3-6 6-6h1v6z"/><path fill="url(#av)" d="M138 67h8v6h-8z"/><path fill="#3F3E3E" d="M146 67h7v6h-7z"/><path fill="url(#aw)" d="M153 67h7v6h-7z"/><path fill="url(#ax)" d="M124 73h7v7h-7z"/><path fill="#3F3E3E" d="M131 73h7v7h-7z"/><path fill="url(#ay)" d="M138 73h8v7h-8z"/><path fill="#3F3E3E" d="M146 73h7v7h-7z"/><path fill="url(#az)" d="M153 73h7c0 4-2 7-6 7h-1z"/><path fill="#3F3E3E" d="M117 73h7v7h-2c-3 0-5-3-5-7m0-52c0-4 2-7 5-7h2v7zm29 0c0-4 2-7 5-7h2v7z"/><path fill="url(#aA)" d="M138 14h2c3 0 6 3 6 7h-8z"/><path fill="url(#aB)" d="M153 21h7c0 4-2 7-6 7h-1z"/><defs><linearGradient id="a" x1="80" x2="80" y1="0" y2="80" gradientUnits="userSpaceOnUse"><stop stop-color="#F88105"/><stop offset=".745" stop-color="#B0160C"/></linearGradient><linearGradient id="b" x1="80" x2="80" y1="0" y2="80" gradientUnits="userSpaceOnUse"><stop stop-color="#F88105"/><stop offset=".745" stop-color="#B0160C"/></linearGradient><linearGradient id="c" x1="80" x2="80" y1="0" y2="80" gradientUnits="userSpaceOnUse"><stop stop-color="#F88105"/><stop offset=".745" stop-color="#B0160C"/></linearGradient><linearGradient id="d" x1="80" x2="80" y1="0" y2="80" gradientUnits="userSpaceOnUse"><stop stop-color="#F88105"/><stop offset=".745" stop-color="#B0160C"/></linearGradient><linearGradient id="e" x1="80" x2="80" y1="0" y2="80" gradientUnits="userSpaceOnUse"><stop stop-color="#F88105"/><stop offset=".745" stop-color="#B0160C"/></linearGradient><linearGradient id="f" x1="80" x2="80" y1="0" y2="80" gradientUnits="userSpaceOnUse"><stop stop-color="#F88105"/><stop offset=".745" stop-color="#B0160C"/></linearGradient><linearGradient id="g" x1="80" x2="80" y1="0" y2="80" gradientUnits="userSpaceOnUse"><stop stop-color="#F88105"/><stop offset=".745" stop-color="#B0160C"/></linearGradient><linearGradient id="h" x1="80" x2="80" y1="0" y2="80" gradientUnits="userSpaceOnUse"><stop stop-color="#F88105"/><stop offset=".745" stop-color="#B0160C"/></linearGradient><linearGradient id="i" x1="80" x2="80" y1="0" y2="80" gradientUnits="userSpaceOnUse"><stop stop-color="#F88105"/><stop offset=".745" stop-color="#B0160C"/></linearGradient><linearGradient id="j" x1="80" x2="80" y1="0" y2="80" gradientUnits="userSpaceOnUse"><stop stop-color="#F88105"/><stop offset=".745" stop-color="#B0160C"/></linearGradient><linearGradient id="k" x1="80" x2="80" y1="0" y2="80" gradientUnits="userSpaceOnUse"><stop stop-color="#F88105"/><stop offset=".745" stop-color="#B0160C"/></linearGradient><linearGradient id="l" x1="80" x2="80" y1="0" y2="80" gradientUnits="userSpaceOnUse"><stop stop-color="#F88105"/><stop offset=".745" stop-color="#B0160C"/></linearGradient><linearGradient id="m" x1="80" x2="80" y1="0" y2="80" gradientUnits="userSpaceOnUse"><stop stop-color="#F88105"/><stop offset=".745" stop-color="#B0160C"/></linearGradient><linearGradient id="n" x1="80" x2="80" y1="0" y2="80" gradientUnits="userSpaceOnUse"><stop stop-color="#F88105"/><stop offset=".745" stop-color="#B0160C"/></linearGradient><linearGradient id="o" x1="80" x2="80" y1="0" y2="80" gradientUnits="userSpaceOnUse"><stop stop-color="#F88105"/><stop offset=".745" stop-color="#B0160C"/></linearGradient><linearGradient id="p" x1="80" x2="80" y1="0" y2="80" gradientUnits="userSpaceOnUse"><stop stop-color="#F88105"/><stop offset=".745" stop-color="#B0160C"/></linearGradient><linearGradient id="q" x1="80" x2="80" y1="0" y2="80" gradientUnits="userSpaceOnUse"><stop stop-color="#F88105"/><stop offset=".745" stop-color="#B0160C"/></linearGradient><linearGradient id="r" x1="80" x2="80" y1="0" y2="80" gradientUnits="userSpaceOnUse"><stop stop-color="#F88105"/><stop offset=".745" stop-color="#B0160C"/></linearGradient><linearGradient id="s" x1="80" x2="80" y1="0" y2="80" gradientUnits="userSpaceOnUse"><stop stop-color="#F88105"/><stop offset=".745" stop-color="#B0160C"/></linearGradient><linearGradient id="t" x1="80" x2="80" y1="0" y2="80" gradientUnits="userSpaceOnUse"><stop stop-color="#F88105"/><stop offset=".745" stop-color="#B0160C"/></linearGradient><linearGradient id="u" x1="80" x2="80" y1="0" y2="80" gradientUnits="userSpaceOnUse"><stop stop-color="#F88105"/><stop offset=".745" stop-color="#B0160C"/></linearGradient><linearGradient id="v" x1="80" x2="80" y1="0" y2="80" gradientUnits="userSpaceOnUse"><stop stop-color="#F88105"/><stop offset=".745" stop-color="#B0160C"/></linearGradient><linearGradient id="w" x1="80" x2="80" y1="0" y2="80" gradientUnits="userSpaceOnUse"><stop stop-color="#F88105"/><stop offset=".745" stop-color="#B0160C"/></linearGradient><linearGradient id="x" x1="80" x2="80" y1="0" y2="80" gradientUnits="userSpaceOnUse"><stop stop-color="#F88105"/><stop offset=".745" stop-color="#B0160C"/></linearGradient><linearGradient id="y" x1="80" x2="80" y1="0" y2="80" gradientUnits="userSpaceOnUse"><stop stop-color="#F88105"/><stop offset=".745" stop-color="#B0160C"/></linearGradient><linearGradient id="z" x1="80" x2="80" y1="0" y2="80" gradientUnits="userSpaceOnUse"><stop stop-color="#F88105"/><stop offset=".745" stop-color="#B0160C"/></linearGradient><linearGradient id="A" x1="80" x2="80" y1="0" y2="80" gradientUnits="userSpaceOnUse"><stop stop-color="#F88105"/><stop offset=".745" stop-color="#B0160C"/></linearGradient><linearGradient id="B" x1="80" x2="80" y1="0" y2="80" gradientUnits="userSpaceOnUse"><stop stop-color="#F88105"/><stop offset=".745" stop-color="#B0160C"/></linearGradient><linearGradient id="C" x1="80" x2="80" y1="0" y2="80" gradientUnits="userSpaceOnUse"><stop stop-color="#F88105"/><stop offset=".745" stop-color="#B0160C"/></linearGradient><linearGradient id="D" x1="80" x2="80" y1="0" y2="80" gradientUnits="userSpaceOnUse"><stop stop-color="#F88105"/><stop offset=".745" stop-color="#B0160C"/></linearGradient><linearGradient id="E" x1="80" x2="80" y1="0" y2="80" gradientUnits="userSpaceOnUse"><stop stop-color="#F88105"/><stop offset=".745" stop-color="#B0160C"/></linearGradient><linearGradient id="F" x1="80" x2="80" y1="0" y2="80" gradientUnits="userSpaceOnUse"><stop stop-color="#F88105"/><stop offset=".745" stop-color="#B0160C"/></linearGradient><linearGradient id="G" x1="80" x2="80" y1="0" y2="80" gradientUnits="userSpaceOnUse"><stop stop-color="#F88105"/><stop offset=".745" stop-color="#B0160C"/></linearGradient><linearGradient id="H" x1="80" x2="80" y1="0" y2="80" gradientUnits="userSpaceOnUse"><stop stop-color="#F88105"/><stop offset=".745" stop-color="#B0160C"/></linearGradient><linearGradient id="I" x1="80" x2="80" y1="0" y2="80" gradientUnits="userSpaceOnUse"><stop stop-color="#F88105"/><stop offset=".745" stop-color="#B0160C"/></linearGradient><linearGradient id="J" x1="80" x2="80" y1="0" y2="80" gradientUnits="userSpaceOnUse"><stop stop-color="#F88105"/><stop offset=".745" stop-color="#B0160C"/></linearGradient><linearGradient id="K" x1="80" x2="80" y1="0" y2="80" gradientUnits="userSpaceOnUse"><stop stop-color="#F88105"/><stop offset=".745" stop-color="#B0160C"/></linearGradient><linearGradient id="L" x1="80" x2="80" y1="0" y2="80" gradientUnits="userSpaceOnUse"><stop stop-color="#F88105"/><stop offset=".745" stop-color="#B0160C"/></linearGradient><linearGradient id="M" x1="80" x2="80" y1="0" y2="80" gradientUnits="userSpaceOnUse"><stop stop-color="#F88105"/><stop offset=".745" stop-color="#B0160C"/></linearGradient><linearGradient id="N" x1="80" x2="80" y1="0" y2="80" gradientUnits="userSpaceOnUse"><stop stop-color="#F88105"/><stop offset=".745" stop-color="#B0160C"/></linearGradient><linearGradient id="O" x1="80" x2="80" y1="0" y2="80" gradientUnits="userSpaceOnUse"><stop stop-color="#F88105"/><stop offset=".745" stop-color="#B0160C"/></linearGradient><linearGradient id="P" x1="80" x2="80" y1="0" y2="80" gradientUnits="userSpaceOnUse"><stop stop-color="#F88105"/><stop offset=".745" stop-color="#B0160C"/></linearGradient><linearGradient id="Q" x1="80" x2="80" y1="0" y2="80" gradientUnits="userSpaceOnUse"><stop stop-color="#F88105"/><stop offset=".745" stop-color="#B0160C"/></linearGradient><linearGradient id="R" x1="80" x2="80" y1="0" y2="80" gradientUnits="userSpaceOnUse"><stop stop-color="#F88105"/><stop offset=".745" stop-color="#B0160C"/></linearGradient><linearGradient id="S" x1="80" x2="80" y1="0" y2="80" gradientUnits="userSpaceOnUse"><stop stop-color="#F88105"/><stop offset=".745" stop-color="#B0160C"/></linearGradient><linearGradient id="T" x1="80" x2="80" y1="0" y2="80" gradientUnits="userSpaceOnUse"><stop stop-color="#F88105"/><stop offset=".745" stop-color="#B0160C"/></linearGradient><linearGradient id="U" x1="80" x2="80" y1="0" y2="80" gradientUnits="userSpaceOnUse"><stop stop-color="#F88105"/><stop offset=".745" stop-color="#B0160C"/></linearGradient><linearGradient id="V" x1="80" x2="80" y1="0" y2="80" gradientUnits="userSpaceOnUse"><stop stop-color="#F88105"/><stop offset=".745" stop-color="#B0160C"/></linearGradient><linearGradient id="W" x1="80" x2="80" y1="0" y2="80" gradientUnits="userSpaceOnUse"><stop stop-color="#F88105"/><stop offset=".745" stop-color="#B0160C"/></linearGradient><linearGradient id="X" x1="80" x2="80" y1="0" y2="80" gradientUnits="userSpaceOnUse"><stop stop-color="#F88105"/><stop offset=".745" stop-color="#B0160C"/></linearGradient><linearGradient id="Y" x1="80" x2="80" y1="0" y2="80" gradientUnits="userSpaceOnUse"><stop stop-color="#F88105"/><stop offset=".745" stop-color="#B0160C"/></linearGradient><linearGradient id="Z" x1="80" x2="80" y1="0" y2="80" gradientUnits="userSpaceOnUse"><stop stop-color="#F88105"/><stop offset=".745" stop-color="#B0160C"/></linearGradient><linearGradient id="aa" x1="80" x2="80" y1="0" y2="80" gradientUnits="userSpaceOnUse"><stop stop-color="#F88105"/><stop offset=".745" stop-color="#B0160C"/></linearGradient><linearGradient id="ab" x1="80" x2="80" y1="0" y2="80" gradientUnits="userSpaceOnUse"><stop stop-color="#F88105"/><stop offset=".745" stop-color="#B0160C"/></linearGradient><linearGradient id="ac" x1="80" x2="80" y1="0" y2="80" gradientUnits="userSpaceOnUse"><stop stop-color="#F88105"/><stop offset=".745" stop-color="#B0160C"/></linearGradient><linearGradient id="ad" x1="80" x2="80" y1="0" y2="80" gradientUnits="userSpaceOnUse"><stop stop-color="#F88105"/><stop offset=".745" stop-color="#B0160C"/></linearGradient><linearGradient id="ae" x1="80" x2="80" y1="0" y2="80" gradientUnits="userSpaceOnUse"><stop stop-color="#F88105"/><stop offset=".745" stop-color="#B0160C"/></linearGradient><linearGradient id="af" x1="80" x2="80" y1="0" y2="80" gradientUnits="userSpaceOnUse"><stop stop-color="#F88105"/><stop offset=".745" stop-color="#B0160C"/></linearGradient><linearGradient id="ag" x1="80" x2="80" y1="0" y2="80" gradientUnits="userSpaceOnUse"><stop stop-color="#F88105"/><stop offset=".745" stop-color="#B0160C"/></linearGradient><linearGradient id="ah" x1="80" x2="80" y1="0" y2="80" gradientUnits="userSpaceOnUse"><stop stop-color="#F88105"/><stop offset=".745" stop-color="#B0160C"/></linearGradient><linearGradient id="ai" x1="80" x2="80" y1="0" y2="80" gradientUnits="userSpaceOnUse"><stop stop-color="#F88105"/><stop offset=".745" stop-color="#B0160C"/></linearGradient><linearGradient id="aj" x1="80" x2="80" y1="0" y2="80" gradientUnits="userSpaceOnUse"><stop stop-color="#F88105"/><stop offset=".745" stop-color="#B0160C"/></linearGradient><linearGradient id="ak" x1="80" x2="80" y1="0" y2="80" gradientUnits="userSpaceOnUse"><stop stop-color="#F88105"/><stop offset=".745" stop-color="#B0160C"/></linearGradient><linearGradient id="al" x1="80" x2="80" y1="0" y2="80" gradientUnits="userSpaceOnUse"><stop stop-color="#F88105"/><stop offset=".745" stop-color="#B0160C"/></linearGradient><linearGradient id="am" x1="80" x2="80" y1="0" y2="80" gradientUnits="userSpaceOnUse"><stop stop-color="#F88105"/><stop offset=".745" stop-color="#B0160C"/></linearGradient><linearGradient id="an" x1="80" x2="80" y1="0" y2="80" gradientUnits="userSpaceOnUse"><stop stop-color="#F88105"/><stop offset=".745" stop-color="#B0160C"/></linearGradient><linearGradient id="ao" x1="80" x2="80" y1="0" y2="80" gradientUnits="userSpaceOnUse"><stop stop-color="#F88105"/><stop offset=".745" stop-color="#B0160C"/></linearGradient><linearGradient id="ap" x1="80" x2="80" y1="0" y2="80" gradientUnits="userSpaceOnUse"><stop stop-color="#F88105"/><stop offset=".745" stop-color="#B0160C"/></linearGradient><linearGradient id="aq" x1="80" x2="80" y1="0" y2="80" gradientUnits="userSpaceOnUse"><stop stop-color="#F88105"/><stop offset=".745" stop-color="#B0160C"/></linearGradient><linearGradient id="ar" x1="80" x2="80" y1="0" y2="80" gradientUnits="userSpaceOnUse"><stop stop-color="#F88105"/><stop offset=".745" stop-color="#B0160C"/></linearGradient><linearGradient id="as" x1="80" x2="80" y1="0" y2="80" gradientUnits="userSpaceOnUse"><stop stop-color="#F88105"/><stop offset=".745" stop-color="#B0160C"/></linearGradient><linearGradient id="at" x1="80" x2="80" y1="0" y2="80" gradientUnits="userSpaceOnUse"><stop stop-color="#F88105"/><stop offset=".745" stop-color="#B0160C"/></linearGradient><linearGradient id="au" x1="80" x2="80" y1="0" y2="80" gradientUnits="userSpaceOnUse"><stop stop-color="#F88105"/><stop offset=".745" stop-color="#B0160C"/></linearGradient><linearGradient id="av" x1="80" x2="80" y1="0" y2="80" gradientUnits="userSpaceOnUse"><stop stop-color="#F88105"/><stop offset=".745" stop-color="#B0160C"/></linearGradient><linearGradient id="aw" x1="80" x2="80" y1="0" y2="80" gradientUnits="userSpaceOnUse"><stop stop-color="#F88105"/><stop offset=".745" stop-color="#B0160C"/></linearGradient><linearGradient id="ax" x1="80" x2="80" y1="0" y2="80" gradientUnits="userSpaceOnUse"><stop stop-color="#F88105"/><stop offset=".745" stop-color="#B0160C"/></linearGradient><linearGradient id="ay" x1="80" x2="80" y1="0" y2="80" gradientUnits="userSpaceOnUse"><stop stop-color="#F88105"/><stop offset=".745" stop-color="#B0160C"/></linearGradient><linearGradient id="az" x1="80" x2="80" y1="0" y2="80" gradientUnits="userSpaceOnUse"><stop stop-color="#F88105"/><stop offset=".745" stop-color="#B0160C"/></linearGradient><linearGradient id="aA" x1="80" x2="80" y1="0" y2="80" gradientUnits="userSpaceOnUse"><stop stop-color="#F88105"/><stop offset=".745" stop-color="#B0160C"/></linearGradient><linearGradient id="aB" x1="80" x2="80" y1="0" y2="80" gradientUnits="userSpaceOnUse"><stop stop-color="#F88105"/><stop offset=".745" stop-color="#B0160C"/></linearGradient></defs></svg>